<?xml version="1.0" encoding="UTF-8"?>
<!DOCTYPE svg PUBLIC "-//W3C//DTD SVG 1.1//EN"
  "http://www.w3.org/Graphics/SVG/1.1/DTD/svg11.dtd">
<svg xmlns="http://www.w3.org/2000/svg" version="1.1" width="40" height="40">
  <line x1="2" y1="2" x2="18" y2="2" style="stroke:#d0d0d0;stroke-width:1" />
  <line x1="2" y1="6" x2="18" y2="6" style="stroke:#d0d0d0;stroke-width:1" />
  <line x1="2" y1="10" x2="18" y2="10" style="stroke:#d0d0d0;stroke-width:1" />
  <line x1="2" y1="14" x2="18" y2="14" style="stroke:#d0d0d0;stroke-width:1" />
  <line x1="2" y1="18" x2="18" y2="18" style="stroke:#d0d0d0;stroke-width:1" />

  <line x1="2" y1="22" x2="2" y2="38" style="stroke:#d0d0d0;stroke-width:1" />
  <line x1="6" y1="22" x2="6" y2="38" style="stroke:#d0d0d0;stroke-width:1" />
  <line x1="10" y1="22" x2="10" y2="38" style="stroke:#d0d0d0;stroke-width:1" />
  <line x1="14" y1="22" x2="14" y2="38" style="stroke:#d0d0d0;stroke-width:1" />
  <line x1="18" y1="22" x2="18" y2="38" style="stroke:#d0d0d0;stroke-width:1" />

  <line x1="22" y1="2" x2="22" y2="18" style="stroke:#d0d0d0;stroke-width:1" />
  <line x1="26" y1="2" x2="26" y2="18" style="stroke:#d0d0d0;stroke-width:1" />
  <line x1="30" y1="2" x2="30" y2="18" style="stroke:#d0d0d0;stroke-width:1" />
  <line x1="34" y1="2" x2="34" y2="18" style="stroke:#d0d0d0;stroke-width:1" />
  <line x1="38" y1="2" x2="38" y2="18" style="stroke:#d0d0d0;stroke-width:1" />

  <line x1="22" y1="22" x2="38" y2="22" style="stroke:#d0d0d0;stroke-width:1" />
  <line x1="22" y1="26" x2="38" y2="26" style="stroke:#d0d0d0;stroke-width:1" />
  <line x1="22" y1="30" x2="38" y2="30" style="stroke:#d0d0d0;stroke-width:1" />
  <line x1="22" y1="34" x2="38" y2="34" style="stroke:#d0d0d0;stroke-width:1" />
  <line x1="22" y1="38" x2="38" y2="38" style="stroke:#d0d0d0;stroke-width:1" />
</svg>
